<?xml version="1.0" encoding="UTF-8"?>
<svg width="80px" height="80px" viewBox="0 0 80 80" version="1.1" xmlns="http://www.w3.org/2000/svg" xmlns:xlink="http://www.w3.org/1999/xlink">
    <!-- Generator: Sketch 50.2 (55047) - http://www.bohemiancoding.com/sketch -->
    <title>icon</title>
    <desc>Created with Sketch.</desc>
    <defs></defs>
    <g id="Website" stroke="none" stroke-width="1" fill="none" fill-rule="evenodd">
        <g id="For-Business" transform="translate(-1090.000000, -4139.000000)">
            <g id="Business" transform="translate(0.000000, 3217.000000)">
                <g id="Business-3" transform="translate(1050.000000, 921.000000)">
                    <g id="icon" transform="translate(40.000000, 0.105263)">
                        <circle id="Oval-2" fill-opacity="0.5" fill="#B7D8FF" cx="40" cy="40.8947368" r="40"></circle>
                        <path d="M40,33.3625731 L40,27 L24,27 L24,55.6315789 L56,55.6315789 L56,33.3625731 L40,33.3625731 Z M30.4,52.4502924 L27.2,52.4502924 L27.2,49.2690058 L30.4,49.2690058 L30.4,52.4502924 Z M30.4,46.0877193 L27.2,46.0877193 L27.2,42.9064327 L30.4,42.9064327 L30.4,46.0877193 Z M30.4,39.7251462 L27.2,39.7251462 L27.2,36.5438596 L30.4,36.5438596 L30.4,39.7251462 Z M30.4,33.3625731 L27.2,33.3625731 L27.2,30.1812865 L30.4,30.1812865 L30.4,33.3625731 Z M36.8,52.4502924 L33.6,52.4502924 L33.6,49.2690058 L36.8,49.2690058 L36.8,52.4502924 Z M36.8,46.0877193 L33.6,46.0877193 L33.6,42.9064327 L36.8,42.9064327 L36.8,46.0877193 Z M36.8,39.7251462 L33.6,39.7251462 L33.6,36.5438596 L36.8,36.5438596 L36.8,39.7251462 Z M36.8,33.3625731 L33.6,33.3625731 L33.6,30.1812865 L36.8,30.1812865 L36.8,33.3625731 Z M52.8,52.4502924 L40,52.4502924 L40,49.2690058 L43.2,49.2690058 L43.2,46.0877193 L40,46.0877193 L40,42.9064327 L43.2,42.9064327 L43.2,39.7251462 L40,39.7251462 L40,36.5438596 L52.8,36.5438596 L52.8,52.4502924 Z M49.6,39.7251462 L46.4,39.7251462 L46.4,42.9064327 L49.6,42.9064327 L49.6,39.7251462 Z M49.6,46.0877193 L46.4,46.0877193 L46.4,49.2690058 L49.6,49.2690058 L49.6,46.0877193 Z" id="Shape" fill="#0076FF" fill-rule="nonzero"></path>
                    </g>
                </g>
            </g>
        </g>
    </g>
</svg>