<?xml version="1.0" encoding="UTF-8"?>
<svg width="80px" height="81px" viewBox="0 0 80 81" version="1.1" xmlns="http://www.w3.org/2000/svg" xmlns:xlink="http://www.w3.org/1999/xlink">
    <!-- Generator: Sketch 50.2 (55047) - http://www.bohemiancoding.com/sketch -->
    <title>icon</title>
    <desc>Created with Sketch.</desc>
    <defs></defs>
    <g id="Website" stroke="none" stroke-width="1" fill="none" fill-rule="evenodd">
        <g id="For-Business" transform="translate(-1490.000000, -4139.000000)">
            <g id="Business" transform="translate(0.000000, 3217.000000)">
                <g id="Business-4" transform="translate(1450.000000, 922.000000)">
                    <g id="icon" transform="translate(40.000000, 0.105263)">
                        <circle id="Oval-2" fill-opacity="0.5" fill="#B7D8FF" cx="40" cy="40" r="40"></circle>
                        <path d="M51.6666667,25 L28.3333333,25 C26.5,25 25,26.5 25,28.3333333 L25,51.6666667 C25,53.5 26.5,55 28.3333333,55 L51.6666667,55 C53.5,55 55,53.5 55,51.6666667 L55,28.3333333 C55,26.5 53.5,25 51.6666667,25 Z M48.3333333,41.6666667 L41.6666667,41.6666667 L41.6666667,48.3333333 L38.3333333,48.3333333 L38.3333333,41.6666667 L31.6666667,41.6666667 L31.6666667,38.3333333 L38.3333333,38.3333333 L38.3333333,31.6666667 L41.6666667,31.6666667 L41.6666667,38.3333333 L48.3333333,38.3333333 L48.3333333,41.6666667 Z" id="Shape" fill="#0076FF" fill-rule="nonzero"></path>
                    </g>
                </g>
            </g>
        </g>
    </g>
</svg>