<?xml version="1.0" encoding="UTF-8"?>
<svg width="80px" height="81px" viewBox="0 0 80 81" version="1.1" xmlns="http://www.w3.org/2000/svg" xmlns:xlink="http://www.w3.org/1999/xlink">
    <!-- Generator: Sketch 50.2 (55047) - http://www.bohemiancoding.com/sketch -->
    <title>icon</title>
    <desc>Created with Sketch.</desc>
    <defs></defs>
    <g id="Website" stroke="none" stroke-width="1" fill="none" fill-rule="evenodd">
        <g id="For-Business" transform="translate(-290.000000, -4139.000000)">
            <g id="Business" transform="translate(0.000000, 3217.000000)">
                <g id="Business-1" transform="translate(250.000000, 922.000000)">
                    <g id="icon" transform="translate(40.000000, 0.105263)">
                        <circle id="Oval-2" fill-opacity="0.5" fill="#B7D8FF" cx="40" cy="40" r="40"></circle>
                        <path d="M54.2222222,26 L25.7777778,26 L25.7777778,29.5 L54.2222222,29.5 L54.2222222,26 Z M56,43.5 L56,40 L54.2222222,31.25 L25.7777778,31.25 L24,40 L24,43.5 L25.7777778,43.5 L25.7777778,54 L43.5555556,54 L43.5555556,43.5 L50.6666667,43.5 L50.6666667,54 L54.2222222,54 L54.2222222,43.5 L56,43.5 Z M40,50.5 L29.3333333,50.5 L29.3333333,43.5 L40,43.5 L40,50.5 Z" id="Shape" fill="#0076FF" fill-rule="nonzero"></path>
                    </g>
                </g>
            </g>
        </g>
    </g>
</svg>